<?xml version="1.0" standalone="no"?>
<!DOCTYPE svg PUBLIC "-//W3C//DTD SVG 20010904//EN"
 "http://www.w3.org/TR/2001/REC-SVG-20010904/DTD/svg10.dtd">
<svg version="1.0" xmlns="http://www.w3.org/2000/svg"
 width="831.000000pt" height="831.000000pt" viewBox="0 0 831.000000 831.000000"
 preserveAspectRatio="xMidYMid meet">

<g transform="translate(0.000000,831.000000) scale(0.100000,-0.100000)"
fill="#000000" stroke="none">
<path d="M0 4155 l0 -4155 3830 0 3830 0 0 65 0 65 260 0 260 0 0 -65 0 -65
65 0 65 0 0 1864 c0 1644 -2 1865 -15 1876 -9 8 -15 8 -15 2 0 -6 6 -12 12
-14 9 -3 8 -9 -4 -21 -18 -18 -33 -23 -24 -8 4 5 -3 7 -14 4 -11 -3 -17 -9
-14 -14 3 -5 -2 -6 -10 -3 -9 3 -16 10 -16 15 0 18 -19 9 -25 -12 -6 -16 -9
-18 -15 -8 -5 7 -6 17 -4 21 3 4 0 8 -5 8 -6 0 -11 -11 -11 -25 0 -14 5 -25
11 -25 5 0 7 -5 4 -10 -5 -8 -11 -7 -20 0 -11 9 -20 8 -37 -4 -29 -20 -35 -20
-41 2 -4 15 -5 15 -6 -2 -1 -11 -6 -16 -15 -13 -8 3 -17 1 -20 -6 -3 -9 -5 -9
-5 1 -1 6 -6 12 -12 12 -6 0 -9 -7 -5 -15 3 -9 0 -15 -9 -15 -8 0 -15 -4 -15
-8 0 -13 -48 -33 -55 -22 -3 4 3 11 12 13 16 4 16 5 1 6 -9 0 -20 -4 -23 -9
-5 -8 -11 -7 -21 1 -11 9 -14 9 -14 -1 0 -10 -3 -10 -14 -1 -12 10 -13 8 -9
-8 4 -15 1 -21 -11 -21 -10 0 -15 3 -13 8 3 4 -6 7 -19 7 -13 0 -24 -3 -24 -6
0 -3 -14 -5 -30 -4 -27 2 -29 0 -16 -14 15 -17 7 -20 -61 -21 -12 0 -34 -7
-49 -15 -29 -15 -50 -4 -36 20 3 5 -2 4 -11 -4 -9 -7 -14 -17 -11 -22 3 -5 -3
-12 -12 -16 -10 -4 -19 -2 -22 5 -2 7 -8 12 -13 12 -6 0 -8 -4 -5 -9 7 -11
-13 -27 -39 -33 -11 -2 -19 -10 -17 -16 3 -18 -15 -14 -22 4 -6 14 -9 14 -26
-6 -11 -13 -20 -18 -20 -12 0 7 -11 12 -25 12 -14 0 -25 -5 -25 -11 0 -7 -10
-9 -25 -5 -15 4 -25 2 -25 -4 0 -7 -8 -9 -19 -5 -11 3 -22 1 -25 -4 -4 -5 -18
-8 -32 -5 -16 3 -23 1 -19 -6 8 -12 8 -12 -33 -1 -26 8 -32 7 -32 -5 0 -8 -4
-13 -9 -9 -5 3 -13 1 -16 -5 -5 -8 -11 -7 -21 1 -8 6 -14 7 -14 2 0 -18 -46
-33 -60 -20 -10 9 -11 9 -6 0 12 -22 -11 -14 -28 9 -9 13 -15 17 -13 9 1 -8
-16 -25 -38 -37 -41 -24 -60 -30 -52 -16 3 4 -8 7 -24 7 -16 0 -29 -4 -29 -9
0 -4 -7 -5 -16 -2 -12 5 -15 2 -10 -11 4 -10 4 -14 0 -11 -3 4 -22 1 -40 -7
-18 -7 -36 -10 -39 -5 -3 4 1 11 7 13 8 3 6 6 -4 6 -13 1 -18 -7 -18 -23 0
-13 -7 -26 -15 -30 -8 -3 -15 -1 -15 4 0 6 5 10 11 10 5 0 7 5 4 10 -5 8 -11
7 -21 -1 -11 -9 -18 -8 -31 2 -15 13 -15 12 -4 -10 7 -13 8 -21 3 -17 -6 3
-13 2 -16 -3 -3 -5 -15 -7 -27 -4 -12 4 -25 0 -29 -7 -11 -18 -52 -23 -62 -8
-6 10 -8 10 -8 0 0 -7 -5 -10 -11 -6 -8 4 -9 -1 -4 -17 7 -21 6 -22 -8 -11
-19 16 -57 7 -57 -14 0 -8 -7 -14 -16 -14 -8 0 -13 4 -9 9 3 5 0 13 -6 17 -7
4 -9 3 -6 -3 8 -12 -59 -48 -85 -47 -10 1 -18 -1 -18 -5 0 -3 -14 -7 -31 -7
-17 -1 -35 -7 -39 -14 -5 -8 -10 -9 -14 -2 -8 13 -37 4 -53 -17 -8 -10 -12
-11 -13 -4 0 9 -8 9 -32 1 -18 -6 -37 -14 -43 -18 -5 -4 -30 -10 -55 -13 -24
-3 -46 -10 -48 -16 -2 -5 -10 -7 -18 -4 -8 3 -14 0 -14 -5 0 -6 -8 -10 -17
-10 -10 1 -29 -2 -42 -6 -22 -8 -23 -6 -17 20 3 16 9 90 13 164 l6 134 -46
-52 c-28 -31 -47 -62 -47 -76 0 -14 -12 -34 -28 -48 -19 -16 -27 -32 -26 -53
1 -56 -28 -115 -58 -115 -5 0 -7 26 -6 58 2 55 0 61 -37 105 -22 26 -41 47
-43 47 -2 0 11 -25 29 -56 26 -46 29 -58 18 -64 -8 -5 -27 -20 -43 -33 -27
-23 -28 -29 -22 -74 l6 -48 -20 30 c-26 40 -64 36 -105 -12 -19 -22 -41 -35
-60 -37 -16 -2 -31 -8 -33 -15 -6 -19 19 -41 48 -41 15 0 34 -7 41 -16 11 -14
10 -16 -6 -13 -11 2 -26 0 -34 -5 -10 -6 -18 -3 -27 10 -36 53 -46 60 -80 56
-25 -3 -34 -9 -34 -23 0 -18 -36 -59 -52 -59 -4 0 -5 7 -2 15 4 8 2 15 -3 15
-16 0 -33 -23 -33 -45 -1 -25 -21 -53 -36 -48 -7 2 -29 -8 -49 -22 -21 -14
-44 -25 -51 -25 -8 0 -14 -4 -14 -10 0 -5 -5 -10 -11 -10 -6 0 -38 -18 -70
-40 -32 -22 -63 -40 -68 -40 -5 0 -33 -16 -62 -36 -30 -20 -72 -45 -94 -56
-50 -26 -52 -27 -37 -37 12 -7 -17 -31 -90 -76 -9 -5 -95 -73 -191 -150 -218
-175 -467 -372 -510 -405 -18 -14 -71 -55 -117 -91 -114 -88 -142 -102 -175
-87 -14 6 -24 17 -21 24 2 6 -6 16 -20 23 -13 6 -24 17 -24 26 0 8 -9 15 -20
15 -11 0 -20 5 -20 11 0 6 -9 8 -22 4 -18 -5 -20 -4 -8 4 13 9 12 12 -7 17
-13 4 -23 11 -23 16 0 5 -4 7 -9 3 -5 -3 -18 6 -29 20 -11 14 -30 25 -42 25
-15 0 -20 5 -17 14 3 8 -6 24 -20 37 l-26 24 12 -22 c6 -13 8 -23 2 -23 -5 0
-12 7 -15 16 -5 13 -9 14 -21 4 -13 -10 -15 -9 -15 9 0 14 4 20 12 15 7 -4 8
-3 4 4 -4 6 -12 9 -19 6 -7 -2 -19 7 -27 20 -10 20 -16 23 -31 15 -15 -8 -19
-6 -19 7 0 10 -3 14 -6 11 -10 -10 -44 12 -44 28 0 9 -6 12 -15 9 -9 -4 -15 0
-15 10 0 9 -7 16 -15 16 -8 0 -15 5 -15 11 0 8 -5 7 -15 -1 -13 -11 -14 -10
-8 5 5 15 3 17 -11 12 -10 -4 -15 -3 -11 3 9 14 -8 12 -24 -3 -9 -8 -12 -8 -7
0 3 7 -2 14 -13 18 -12 3 -18 12 -15 20 4 10 0 12 -15 8 -15 -4 -21 -1 -21 10
0 9 -9 19 -20 22 -12 4 -19 14 -18 23 2 12 -3 16 -20 15 -13 -2 -21 1 -18 6 4
5 -3 7 -14 4 -12 -3 -20 0 -20 6 0 19 -52 62 -82 68 -16 3 -25 10 -21 16 4 6
0 8 -10 4 -10 -3 -17 -2 -17 3 0 6 -11 10 -25 10 -15 0 -23 5 -20 13 6 13 -32
33 -83 43 -18 4 -37 15 -43 25 -5 10 -13 18 -17 17 -12 -3 -56 14 -74 29 -9 8
-31 17 -50 20 -18 3 -35 8 -38 13 -9 13 -98 49 -139 56 -8 2 -17 8 -21 15 -5
6 -21 12 -38 13 -17 0 -29 3 -27 7 4 6 -85 35 -97 31 -4 -1 -12 7 -18 18 -6
11 -15 18 -21 14 -5 -3 -15 -1 -22 4 -7 5 -34 13 -62 17 -27 4 -54 10 -60 13
-5 3 -25 7 -44 9 -20 2 -38 7 -41 11 -6 9 -6 9 -215 32 -93 10 -204 23 -245
29 -41 6 -136 15 -210 21 -74 6 -178 15 -230 20 -52 5 -135 12 -185 15 -49 3
-132 15 -182 26 -74 16 -97 26 -113 46 -21 26 -28 93 -10 93 6 0 10 6 10 13 0
7 16 31 37 53 91 98 103 150 58 250 -14 30 -25 59 -25 64 0 11 -39 83 -49 90
-13 10 -70 106 -91 152 -24 54 -24 53 44 153 42 63 197 223 281 290 27 22 66
55 85 74 19 18 58 48 87 67 28 18 59 44 70 57 10 13 57 57 104 98 47 41 126
110 175 153 49 43 154 131 234 195 80 64 158 128 175 142 16 15 73 62 126 105
140 115 397 342 409 362 7 13 10 -1 12 -53 1 -38 2 -81 3 -95 0 -19 10 -30 40
-44 26 -12 41 -14 43 -7 6 18 30 13 42 -9 9 -17 21 -20 80 -20 60 0 73 3 100
27 l32 26 -4 98 c-3 88 -5 100 -28 124 -24 25 -30 27 -110 25 -47 -2 -98 -2
-115 -1 l-30 1 61 58 c86 81 449 395 570 494 147 120 227 184 247 197 12 8 47
35 77 61 30 25 91 68 135 95 44 27 142 90 218 140 75 49 172 112 215 138 42
27 151 96 241 154 91 57 204 129 252 158 49 29 110 69 136 88 26 19 71 47 98
61 28 15 79 46 115 70 36 24 169 108 295 186 127 79 273 170 325 202 52 33
136 83 185 112 50 29 144 84 210 123 66 39 199 116 295 171 96 55 202 116 234
136 33 20 62 33 65 30 4 -4 -265 -274 -273 -274 -1 0 -70 -67 -153 -148 -83
-81 -202 -193 -264 -248 -62 -54 -158 -142 -213 -194 -56 -52 -157 -145 -225
-205 -69 -61 -174 -155 -235 -210 -134 -122 -235 -211 -331 -290 -40 -33 -99
-83 -131 -112 -99 -88 -307 -255 -331 -266 -38 -17 -26 -28 25 -23 26 3 108 8
182 11 219 10 261 18 337 63 113 66 285 171 544 333 135 85 259 161 275 170
16 10 95 59 175 111 80 52 172 110 205 128 32 19 79 48 104 66 25 17 176 109
335 204 160 95 319 192 355 215 36 23 76 45 88 49 12 4 28 13 34 20 10 10 90
58 173 104 6 4 -39 -47 -100 -111 -130 -138 -523 -513 -771 -734 -212 -190
-278 -248 -474 -418 -118 -103 -217 -192 -219 -198 -6 -15 188 -2 239 16 39
14 95 17 395 17 326 0 1122 -21 1385 -36 63 -4 135 -13 160 -21 25 -7 97 -20
160 -28 111 -15 205 -46 205 -70 0 -6 -50 -13 -115 -17 -174 -11 -975 -10
-1055 1 -111 16 -575 25 -575 12 0 -6 8 -11 18 -12 9 0 -3 -7 -28 -14 -26 -8
-61 -12 -82 -8 -43 6 -94 -11 -108 -36 -5 -10 -14 -118 -20 -242 -17 -364 -40
-742 -46 -772 -6 -27 -4 -28 17 -22 13 4 49 19 79 33 105 50 115 51 53 10 -21
-14 -66 -50 -99 -80 -42 -37 -87 -66 -140 -88 -224 -93 -392 -186 -296 -164
328 75 465 129 589 234 38 32 95 74 126 94 31 20 57 41 57 46 0 5 69 11 163
12 l162 3 5 83 c5 75 7 84 31 100 59 38 269 250 269 270 0 36 -49 178 -71 207
-20 25 -340 190 -520 268 -35 15 -77 34 -94 42 l-30 14 31 0 c87 2 289 -21
332 -38 26 -10 84 -26 129 -34 85 -16 163 -46 443 -166 91 -39 171 -71 179
-71 18 0 91 56 116 89 15 20 18 40 17 113 l-2 88 60 0 60 0 0 -51 c0 -31 4
-48 10 -44 5 3 10 -1 10 -9 0 -22 8 -20 73 19 32 19 65 35 74 35 9 0 25 7 35
16 16 16 21 16 60 1 24 -9 78 -19 121 -23 l78 -7 -25 48 c-14 26 -23 51 -20
56 3 5 -2 9 -10 9 -8 0 -32 16 -51 36 l-37 36 64 47 c35 25 82 61 104 80 22
18 56 43 76 55 35 20 182 123 216 151 9 8 37 29 62 47 l45 34 3 932 2 932
-4155 0 -4155 0 0 -4155z m8210 -486 c0 -6 -4 -7 -10 -4 -5 3 -10 11 -10 16 0
6 5 7 10 4 6 -3 10 -11 10 -16z m-76 -34 c3 -8 1 -15 -4 -15 -6 0 -10 7 -10
15 0 8 2 15 4 15 2 0 6 -7 10 -15z m-1679 -435 c3 -5 -1 -10 -10 -10 -9 0 -13
5 -10 10 3 6 8 10 10 10 2 0 7 -4 10 -10z m-877 -340 c-3 -30 -7 -35 -30 -38
-16 -2 -28 1 -28 7 0 6 4 11 8 11 13 0 32 47 33 78 l0 27 10 -25 c6 -13 9 -40
7 -60z"/>
<path d="M5995 5980 c11 -5 34 -8 50 -8 29 0 29 0 5 8 -14 4 -36 8 -50 8 -23
1 -23 0 -5 -8z"/>
<path d="M3624 5877 c-82 -57 -210 -146 -284 -198 -235 -166 -591 -412 -695
-480 -259 -170 -306 -203 -385 -269 -47 -39 -86 -75 -88 -79 -3 -10 87 -17
463 -36 160 -8 414 -21 565 -30 272 -15 875 -35 1595 -55 629 -16 710 -18 723
-13 6 3 12 17 12 31 0 15 11 92 25 172 41 238 125 875 125 954 0 28 -1 28 -45
22 -30 -5 -59 -2 -92 10 -105 36 -801 74 -1363 74 l-406 0 -150 -103z"/>
<path d="M6098 5973 c7 -3 16 -2 19 1 4 3 -2 6 -13 5 -11 0 -14 -3 -6 -6z"/>
<path d="M7480 5312 c-9 -4 -37 -22 -63 -41 -50 -36 -50 -38 -81 -173 -9 -38
-23 -97 -31 -131 -16 -73 -35 -221 -35 -286 l0 -43 32 31 c17 17 35 31 38 31
4 0 28 29 55 65 26 36 64 79 83 97 35 30 36 31 9 24 -26 -6 -35 2 -19 18 4 4
7 12 7 18 0 6 10 17 22 25 21 14 22 13 32 -24 14 -51 35 -80 27 -38 -3 17 -13
107 -21 200 -16 184 -24 235 -34 234 -3 0 -13 -3 -21 -7z"/>
<path d="M7528 4587 c-114 -100 -215 -184 -238 -199 -33 -20 -37 -34 -50 -223
-6 -82 -15 -167 -21 -188 -14 -53 -81 -123 -154 -160 l-60 -32 185 -7 185 -8
25 29 c14 17 38 56 54 88 16 32 40 79 53 105 13 26 36 92 50 145 22 83 26 124
29 274 5 211 0 226 -58 176z"/>
<path d="M6007 4603 c-4 -7 -3 -22 3 -32 8 -16 15 -18 32 -12 12 4 24 14 26
20 3 10 0 10 -16 2 -28 -15 -30 -14 -34 12 -2 15 -6 18 -11 10z"/>
<path d="M5560 4390 c-46 -13 -125 -58 -168 -95 -109 -94 -192 -318 -227 -615
-9 -74 -20 -148 -25 -165 -11 -37 -30 -222 -29 -290 0 -27 -5 -74 -10 -104 -6
-29 -11 -65 -11 -78 0 -21 2 -22 21 -13 11 6 23 19 26 28 9 23 44 53 54 46 15
-9 41 25 36 47 -4 14 1 23 18 31 14 6 21 16 18 28 -5 18 33 36 39 18 6 -18 36
3 31 22 -4 14 3 19 34 25 22 3 52 15 69 25 l29 20 -66 0 c-36 0 -68 3 -71 6
-3 3 -3 17 2 32 5 21 12 26 31 24 31 -4 64 5 81 21 7 6 31 25 53 42 71 53 77
62 70 106 -6 35 -5 39 14 39 11 0 22 4 26 9 3 6 26 13 50 17 25 3 45 11 45 18
1 6 7 -1 15 -15 l14 -26 51 16 c48 14 50 17 50 51 0 45 -35 342 -53 442 -12
71 -12 77 4 81 11 3 19 -2 22 -14 7 -27 17 -23 59 25 33 37 37 47 31 79 -5 32
-8 35 -25 26 -11 -6 -37 -26 -58 -45 -20 -19 -42 -34 -48 -34 -6 0 -14 15 -17
33 -20 91 -111 159 -185 137z m-300 -995 c16 -9 19 -14 9 -15 -8 0 -24 7 -35
15 -24 18 -7 19 26 0z"/>
<path d="M1474 4107 c-8 -5 -12 -13 -9 -18 6 -8 -61 -125 -137 -238 -16 -24
-27 -45 -24 -48 2 -3 15 12 29 34 13 21 54 83 89 139 l66 101 53 6 c30 4 112
7 182 7 l128 0 -39 -57 c-21 -32 -56 -87 -76 -123 -21 -36 -56 -89 -78 -119
l-41 -54 -146 7 c-164 8 -194 13 -184 30 4 6 -1 5 -10 -2 -13 -11 -73 -10
-358 7 -310 20 -344 20 -365 6 -28 -18 -31 -35 -8 -35 9 0 188 -15 398 -34
209 -19 458 -39 551 -45 94 -6 274 -20 400 -31 127 -11 336 -29 465 -40 308
-26 863 -66 1115 -80 110 -6 261 -15 335 -20 74 -5 206 -12 293 -16 l157 -7 0
30 0 29 -172 13 c-391 27 -435 31 -478 40 -25 6 -115 15 -200 21 -85 6 -213
15 -285 20 -71 6 -310 21 -530 35 -454 29 -877 62 -918 73 l-27 7 47 70 c26
39 80 121 120 183 l72 112 -32 1 c-169 5 -371 2 -383 -4z"/>
<path d="M3446 3996 c-31 -49 -65 -95 -183 -249 -27 -36 -30 -43 -16 -51 12
-7 23 -1 42 22 14 16 37 33 51 37 l25 8 -23 8 c-22 8 -22 9 13 56 19 26 59 82
88 123 32 46 62 77 77 81 14 4 18 7 8 8 -9 1 -23 4 -31 7 -11 4 -26 -12 -51
-50z"/>
<path d="M3633 4023 c37 -2 97 -2 135 0 37 2 6 3 -68 3 -74 0 -105 -1 -67 -3z"/>
<path d="M3928 4013 c7 -3 16 -2 19 1 4 3 -2 6 -13 5 -11 0 -14 -3 -6 -6z"/>
<path d="M3988 4013 c17 -2 47 -2 65 0 17 2 3 4 -33 4 -36 0 -50 -2 -32 -4z"/>
<path d="M6020 3830 c0 -5 5 -10 11 -10 5 0 7 5 4 10 -3 6 -8 10 -11 10 -2 0
-4 -4 -4 -10z"/>
<path d="M4978 3705 c-4 -16 -1 -25 8 -25 14 0 23 19 16 38 -7 20 -19 14 -24
-13z"/>
<path d="M1320 3489 c0 -8 10 -53 22 -101 l22 -87 51 -5 c27 -2 156 -12 285
-21 272 -18 682 -51 1257 -100 94 -8 183 -15 197 -15 l26 0 0 105 0 104 63 4
c40 2 23 4 -48 5 -95 2 -311 16 -920 62 -71 5 -224 14 -340 20 -325 16 -547
30 -582 36 -24 5 -33 2 -33 -7z m1840 -123 c0 -3 -4 -8 -10 -11 -5 -3 -10 -1
-10 4 0 6 5 11 10 11 6 0 10 -2 10 -4z"/>
<path d="M5740 3489 c0 -5 5 -7 10 -4 6 3 10 8 10 11 0 2 -4 4 -10 4 -5 0 -10
-5 -10 -11z"/>
<path d="M3398 3363 c23 -2 61 -2 85 0 23 2 4 4 -43 4 -47 0 -66 -2 -42 -4z"/>
<path d="M3588 3353 c17 -2 47 -2 65 0 17 2 3 4 -33 4 -36 0 -50 -2 -32 -4z"/>
<path d="M3733 3343 c26 -2 67 -2 90 0 23 2 2 3 -48 3 -49 0 -68 -1 -42 -3z"/>
<path d="M5510 3270 c0 -6 7 -10 15 -10 8 0 15 2 15 4 0 2 -7 6 -15 10 -8 3
-15 1 -15 -4z"/>
<path d="M813 3127 c-44 -39 -100 -85 -122 -101 -67 -48 -71 -47 161 -72 133
-14 159 -14 175 -3 11 8 59 57 108 109 l88 94 -124 23 c-194 34 -190 35 -286
-50z"/>
<path d="M1580 3053 c-74 -49 -196 -120 -235 -137 l-20 -8 20 -9 c38 -16 518
-63 1165 -114 173 -14 380 -32 460 -41 278 -30 256 -29 295 -3 20 13 63 64 96
113 51 76 58 91 46 103 -23 23 -885 97 -1492 128 -66 3 -152 8 -190 11 l-70 6
-75 -49z"/>
<path d="M3692 2844 c-73 -70 -130 -130 -125 -134 9 -8 339 -30 456 -30 60 0
79 3 83 15 4 8 15 15 26 15 34 0 102 22 123 40 11 10 61 41 110 70 83 48 104
65 105 81 0 4 -43 9 -96 13 -53 4 -106 11 -118 16 -20 7 -108 16 -361 36 l-70
5 -133 -127z"/>
<path d="M4378 2923 c6 -2 18 -2 25 0 6 3 1 5 -13 5 -14 0 -19 -2 -12 -5z"/>
<path d="M4433 2923 c9 -2 25 -2 35 0 9 3 1 5 -18 5 -19 0 -27 -2 -17 -5z"/>
</g>
</svg>
